<?xml version="1.0" encoding="UTF-8"?>
<svg xmlns="http://www.w3.org/2000/svg" version="1.1" width="500" height="500" viewBox="0 0 500 500"><rect x="0" y="0" width="500" height="500" fill="#ffffff"/><g transform="scale(13.514)"><g transform="translate(0,0)"><path fill-rule="evenodd" d="M8 0L8 3L9 3L9 5L8 5L8 9L10 9L10 11L9 11L9 10L8 10L8 11L9 11L9 12L5 12L5 11L7 11L7 10L6 10L6 9L7 9L7 8L6 8L6 9L5 9L5 8L2 8L2 11L4 11L4 12L3 12L3 13L2 13L2 14L1 14L1 15L0 15L0 18L3 18L3 17L2 17L2 16L3 16L3 15L4 15L4 16L5 16L5 17L7 17L7 18L6 18L6 19L5 19L5 18L4 18L4 19L3 19L3 20L2 20L2 19L0 19L0 20L2 20L2 21L0 21L0 29L1 29L1 23L2 23L2 24L3 24L3 23L2 23L2 21L5 21L5 22L4 22L4 23L5 23L5 24L6 24L6 25L5 25L5 26L4 26L4 27L3 27L3 28L2 28L2 29L4 29L4 28L6 28L6 29L7 29L7 28L8 28L8 30L13 30L13 31L12 31L12 33L11 33L11 31L9 31L9 32L8 32L8 35L9 35L9 36L10 36L10 35L9 35L9 34L12 34L12 33L13 33L13 35L11 35L11 36L12 36L12 37L16 37L16 36L18 36L18 35L19 35L19 34L22 34L22 35L21 35L21 36L22 36L22 35L23 35L23 34L24 34L24 33L26 33L26 32L27 32L27 34L28 34L28 33L30 33L30 34L29 34L29 35L26 35L26 34L25 34L25 35L26 35L26 36L23 36L23 37L27 37L27 36L30 36L30 37L31 37L31 35L32 35L32 36L33 36L33 35L32 35L32 34L34 34L34 35L35 35L35 34L34 34L34 33L37 33L37 30L35 30L35 31L36 31L36 32L34 32L34 33L33 33L33 31L34 31L34 30L33 30L33 29L36 29L36 28L33 28L33 26L35 26L35 27L37 27L37 26L35 26L35 25L36 25L36 24L37 24L37 22L36 22L36 23L35 23L35 21L36 21L36 20L37 20L37 18L35 18L35 16L34 16L34 18L35 18L35 19L36 19L36 20L34 20L34 22L33 22L33 23L35 23L35 24L34 24L34 25L33 25L33 24L32 24L32 23L31 23L31 22L32 22L32 21L33 21L33 20L32 20L32 19L31 19L31 20L29 20L29 21L31 21L31 22L29 22L29 26L30 26L30 27L29 27L29 28L28 28L28 26L27 26L27 27L26 27L26 28L23 28L23 30L19 30L19 32L18 32L18 35L17 35L17 34L16 34L16 33L17 33L17 32L14 32L14 33L13 33L13 31L15 31L15 30L16 30L16 31L18 31L18 29L19 29L19 28L22 28L22 27L23 27L23 25L24 25L24 27L25 27L25 25L27 25L27 24L25 24L25 23L23 23L23 22L22 22L22 21L20 21L20 22L22 22L22 23L20 23L20 24L22 24L22 27L19 27L19 28L15 28L15 29L14 29L14 28L11 28L11 27L9 27L9 26L8 26L8 27L7 27L7 26L6 26L6 25L7 25L7 24L9 24L9 25L10 25L10 24L11 24L11 25L12 25L12 27L14 27L14 26L15 26L15 27L16 27L16 26L20 26L20 25L18 25L18 24L17 24L17 22L16 22L16 21L15 21L15 20L17 20L17 19L18 19L18 18L19 18L19 16L18 16L18 17L17 17L17 16L16 16L16 15L15 15L15 14L16 14L16 12L17 12L17 15L19 15L19 14L20 14L20 15L21 15L21 16L22 16L22 18L23 18L23 19L27 19L27 20L23 20L23 21L24 21L24 22L25 22L25 21L27 21L27 20L28 20L28 19L30 19L30 17L31 17L31 18L32 18L32 17L33 17L33 16L32 16L32 13L33 13L33 15L34 15L34 14L35 14L35 13L36 13L36 11L37 11L37 10L35 10L35 9L37 9L37 8L34 8L34 11L35 11L35 12L32 12L32 11L31 11L31 10L32 10L32 8L29 8L29 5L27 5L27 6L26 6L26 7L27 7L27 6L28 6L28 8L29 8L29 9L28 9L28 10L27 10L27 8L23 8L23 9L22 9L22 8L21 8L21 6L20 6L20 7L19 7L19 6L18 6L18 8L17 8L17 5L15 5L15 4L14 4L14 5L13 5L13 3L16 3L16 4L17 4L17 3L16 3L16 2L18 2L18 1L20 1L20 2L19 2L19 5L22 5L22 7L23 7L23 6L24 6L24 7L25 7L25 5L26 5L26 3L23 3L23 2L22 2L22 1L21 1L21 0L17 0L17 1L15 1L15 2L13 2L13 3L12 3L12 4L11 4L11 1L12 1L12 0L10 0L10 3L9 3L9 0ZM13 0L13 1L14 1L14 0ZM23 0L23 1L24 1L24 2L26 2L26 1L27 1L27 4L28 4L28 2L29 2L29 0L28 0L28 1L27 1L27 0L26 0L26 1L25 1L25 0ZM20 2L20 4L22 4L22 2ZM23 4L23 5L25 5L25 4ZM12 5L12 6L11 6L11 8L10 8L10 6L9 6L9 8L10 8L10 9L11 9L11 8L12 8L12 10L13 10L13 9L14 9L14 12L13 12L13 14L12 14L12 13L11 13L11 16L12 16L12 15L14 15L14 16L15 16L15 15L14 15L14 14L15 14L15 13L14 13L14 12L16 12L16 10L17 10L17 12L18 12L18 13L19 13L19 12L18 12L18 9L19 9L19 8L18 8L18 9L16 9L16 8L15 8L15 9L14 9L14 6L13 6L13 5ZM12 6L12 8L13 8L13 6ZM15 6L15 7L16 7L16 6ZM0 9L0 10L1 10L1 9ZM4 9L4 11L5 11L5 9ZM15 9L15 10L16 10L16 9ZM29 9L29 10L28 10L28 11L27 11L27 13L25 13L25 15L23 15L23 18L25 18L25 17L24 17L24 16L26 16L26 14L28 14L28 11L29 11L29 12L30 12L30 10L31 10L31 9ZM19 10L19 11L21 11L21 10ZM0 11L0 12L1 12L1 11ZM10 11L10 12L12 12L12 11ZM22 11L22 12L21 12L21 13L20 13L20 14L21 14L21 13L23 13L23 14L24 14L24 12L26 12L26 11ZM31 12L31 13L30 13L30 14L29 14L29 15L30 15L30 14L31 14L31 13L32 13L32 12ZM4 13L4 14L5 14L5 13ZM6 13L6 14L7 14L7 13ZM8 13L8 14L10 14L10 13ZM36 14L36 16L37 16L37 14ZM1 15L1 16L2 16L2 15ZM6 15L6 16L7 16L7 15ZM9 15L9 16L8 16L8 17L9 17L9 18L8 18L8 19L9 19L9 21L10 21L10 22L8 22L8 23L9 23L9 24L10 24L10 23L11 23L11 22L12 22L12 21L13 21L13 20L15 20L15 19L17 19L17 17L15 17L15 18L14 18L14 17L12 17L12 19L13 19L13 20L11 20L11 18L10 18L10 17L9 17L9 16L10 16L10 15ZM31 16L31 17L32 17L32 16ZM26 17L26 18L28 18L28 17ZM13 18L13 19L14 19L14 18ZM6 19L6 20L5 20L5 21L6 21L6 22L7 22L7 21L6 21L6 20L7 20L7 19ZM20 19L20 20L21 20L21 19ZM14 21L14 22L13 22L13 23L12 23L12 24L13 24L13 25L15 25L15 26L16 26L16 24L15 24L15 21ZM18 21L18 22L19 22L19 21ZM26 22L26 23L28 23L28 22ZM6 23L6 24L7 24L7 23ZM31 24L31 25L30 25L30 26L31 26L31 27L30 27L30 28L31 28L31 27L32 27L32 26L33 26L33 25L32 25L32 24ZM2 25L2 26L3 26L3 25ZM31 25L31 26L32 26L32 25ZM5 26L5 27L6 27L6 28L7 28L7 27L6 27L6 26ZM8 27L8 28L9 28L9 29L11 29L11 28L9 28L9 27ZM27 28L27 29L24 29L24 30L23 30L23 31L24 31L24 32L26 32L26 30L27 30L27 32L28 32L28 30L27 30L27 29L28 29L28 28ZM13 29L13 30L14 30L14 29ZM16 29L16 30L17 30L17 29ZM29 29L29 32L32 32L32 29ZM30 30L30 31L31 31L31 30ZM20 31L20 32L19 32L19 33L20 33L20 32L21 32L21 31ZM14 33L14 34L15 34L15 33ZM22 33L22 34L23 34L23 33ZM31 33L31 34L30 34L30 35L31 35L31 34L32 34L32 33ZM36 34L36 36L34 36L34 37L37 37L37 34ZM13 35L13 36L14 36L14 35ZM0 0L0 7L7 7L7 0ZM1 1L1 6L6 6L6 1ZM2 2L2 5L5 5L5 2ZM30 0L30 7L37 7L37 0ZM31 1L31 6L36 6L36 1ZM32 2L32 5L35 5L35 2ZM0 30L0 37L7 37L7 30ZM1 31L1 36L6 36L6 31ZM2 32L2 35L5 35L5 32Z" fill="#000000"/></g></g></svg>
